<svg width="20" height="24" viewBox="0 0 20 24" fill="none" xmlns="http://www.w3.org/2000/svg">
<path d="M13.3159 8.69537C13.0055 8.69537 12.7539 8.94701 12.7539 9.25743V19.8804C12.7539 20.1906 13.0055 20.4424 13.3159 20.4424C13.6264 20.4424 13.878 20.1906 13.878 19.8804V9.25743C13.878 8.94701 13.6264 8.69537 13.3159 8.69537ZM6.68364 8.69537C6.37322 8.69537 6.12158 8.94701 6.12158 9.25743V19.8804C6.12158 20.1906 6.37322 20.4424 6.68364 20.4424C6.99412 20.4424 7.2457 20.1906 7.2457 19.8804V9.25743C7.2457 8.94701 6.99412 8.69537 6.68364 8.69537Z" fill="black"/>
<path d="M1.84999 7.14503V20.993C1.84999 21.8115 2.15013 22.5801 2.67442 23.1316C2.93258 23.4052 3.24381 23.6234 3.58909 23.7727C3.93438 23.922 4.30648 23.9993 4.68266 24H15.317C15.6932 23.9994 16.0653 23.922 16.4106 23.7727C16.7559 23.6234 17.0672 23.4053 17.3253 23.1316C17.8496 22.5801 18.1497 21.8115 18.1497 20.993V7.14503C19.1919 6.86838 19.8673 5.86151 19.7279 4.79208C19.5883 3.72282 18.6773 2.92301 17.5988 2.92278H14.7212V2.22021C14.7228 1.92773 14.6663 1.63785 14.5549 1.36739C14.4436 1.09692 14.2796 0.851275 14.0726 0.644699C13.8655 0.438143 13.6194 0.274792 13.3486 0.164131C13.0779 0.0534697 12.7878 -0.00229572 12.4953 7.28572e-05H7.50442C7.21192 -0.00230318 6.92186 0.0534586 6.65109 0.16412C6.38031 0.274781 6.13423 0.438136 5.92711 0.644699C5.72006 0.851275 5.55611 1.09692 5.44477 1.36739C5.33343 1.63785 5.27694 1.92773 5.27855 2.22021V2.92278H2.40092C1.32244 2.92301 0.411511 3.72282 0.271839 4.79208C0.132449 5.86151 0.807763 6.86838 1.84999 7.14503ZM15.317 22.8759H4.68271C3.7217 22.8759 2.97411 22.0503 2.97411 20.993V7.19444H17.0256V20.993C17.0256 22.0504 16.2781 22.8759 15.317 22.8759ZM6.40267 2.22021C6.40084 2.0753 6.42813 1.9315 6.48293 1.79734C6.53773 1.66318 6.61893 1.5414 6.7217 1.43923C6.82443 1.33699 6.94665 1.25643 7.0811 1.20231C7.21556 1.1482 7.35951 1.12163 7.50442 1.12419H12.4953C12.6403 1.12163 12.7842 1.1482 12.9187 1.20231C13.0531 1.25643 13.1753 1.33699 13.2781 1.43923C13.3808 1.5414 13.462 1.66318 13.5168 1.79734C13.5716 1.9315 13.5989 2.0753 13.597 2.22021V2.92278H6.40267V2.22021ZM2.40092 4.0469H17.599C18.1577 4.0469 18.6107 4.49987 18.6107 5.05861C18.6107 5.61735 18.1577 6.07032 17.599 6.07032H2.40086C1.84212 6.07032 1.38916 5.61735 1.38916 5.05861C1.38916 4.49987 1.84218 4.0469 2.40092 4.0469Z" fill="black"/>
<path d="M9.9998 8.69537C9.68938 8.69537 9.43774 8.94701 9.43774 9.25743V19.8804C9.43774 20.1906 9.68938 20.4424 9.9998 20.4424C10.3103 20.4424 10.5619 20.1906 10.5619 19.8804V9.25743C10.5619 8.94701 10.3103 8.69537 9.9998 8.69537Z" fill="black"/>
</svg>
