<svg width="24" height="24" viewBox="0 0 24 24" fill="none" xmlns="http://www.w3.org/2000/svg">
<path d="M22.1511 15.046C21.8209 15.046 21.5533 15.3135 21.5533 15.6437V20.9508C21.5521 21.9408 20.7501 22.743 19.7602 22.744H2.98862C1.99861 22.743 1.19664 21.9408 1.19545 20.9508V5.37473C1.19664 4.38496 1.99867 3.58275 2.98862 3.58156H8.29581C8.62594 3.58156 8.89354 3.31396 8.89354 2.98383C8.89354 2.65389 8.62594 2.38611 8.29581 2.38611H2.98862C1.33878 2.38796 0.00185294 3.72489 0 5.37473V20.9511C0.00185294 22.6008 1.33878 23.9378 2.98862 23.9397H19.7602C21.4099 23.9378 22.7469 22.6008 22.7488 20.9511V15.6437C22.7488 15.3135 22.4812 15.046 22.1511 15.046Z" fill="black"/>
<path d="M22.5121 0.848133C21.4616 -0.202307 19.7585 -0.202307 18.7082 0.848133L8.04427 11.512C7.97128 11.5849 7.91844 11.6756 7.8909 11.7751L6.48858 16.8378C6.46028 16.9397 6.45954 17.0473 6.48645 17.1497C6.51336 17.252 6.56695 17.3453 6.64175 17.4201C6.71654 17.4949 6.80985 17.5486 6.91215 17.5755C7.01445 17.6024 7.12208 17.6017 7.22402 17.5735L12.2867 16.1709C12.3862 16.1434 12.4769 16.0905 12.5499 16.0175L23.2134 5.35354C24.2622 4.30232 24.2622 2.60072 23.2134 1.54956L22.5121 0.848133ZM9.34666 11.9005L18.0742 3.17274L20.8889 5.98743L12.1612 14.7152L9.34666 11.9005ZM8.78444 13.0287L11.0331 15.2776L7.92264 16.1394L8.78444 13.0287ZM22.3683 4.5083L21.7343 5.14212L18.9194 2.3272L19.5536 1.69332C20.1371 1.10982 21.0832 1.10982 21.6666 1.69332L22.3683 2.39468C22.9508 2.9789 22.9508 3.92432 22.3683 4.5083Z" fill="black"/>
</svg>
