<svg width="37" height="37" viewBox="0 0 37 37" fill="none" xmlns="http://www.w3.org/2000/svg">
<g clip-path="url(#clip0_6_225)">
<path d="M24.2314 9.66068L18.4999 15.3921L12.7685 9.66068C11.9104 8.80259 10.5192 8.80259 9.6611 9.66068C8.80301 10.5188 8.80301 11.91 9.6611 12.7681L15.3925 18.4995L9.6611 24.2309C8.80301 25.089 8.80301 26.4803 9.6611 27.3383C10.5192 28.1964 11.9104 28.1964 12.7685 27.3383L18.4999 21.6069L24.2314 27.3383C25.0895 28.1964 26.4807 28.1964 27.3388 27.3383C28.1969 26.4803 28.1969 25.089 27.3388 24.2309L21.6073 18.4995L27.3388 12.7681C28.1969 11.91 28.1969 10.5188 27.3388 9.66068C26.4807 8.80259 25.0895 8.80259 24.2314 9.66068Z" fill="black"/>
</g>
<defs>
<clipPath id="clip0_6_225">
<rect width="25" height="25" fill="white" transform="translate(0.822266 18.4995) rotate(-45)"/>
</clipPath>
</defs>
</svg>
