<svg width="196" height="217" viewBox="0 0 196 217" fill="none" xmlns="http://www.w3.org/2000/svg">
<path d="M124.188 130.433C132.596 131.766 140.702 133.883 148.431 136.729C163.969 122.395 173.748 101.533 173.748 78.3259C173.748 35.0691 139.784 0 97.874 0C55.964 0 22 35.0615 22 78.3259C22 103.523 33.5186 125.933 51.4176 140.252C73.531 130.239 98.5602 126.372 124.188 130.433ZM120.299 26.9104C136.069 38.5483 151.844 50.1771 167.629 61.8073C153.945 81.5811 142.175 102.628 132.453 124.673C131.884 124.555 131.313 124.443 130.728 124.331C137.087 100.497 145.718 77.3342 156.492 55.1765C142.845 48.0917 129.183 41.0053 115.536 33.9282C117.101 31.5732 118.689 29.2334 120.299 26.9028L120.3 26.9089L120.299 26.9104ZM99.7731 28.228C117.101 37.22 134.423 46.2058 151.751 55.1826C141.092 77.0783 132.554 99.9519 126.203 123.494C125.878 123.427 125.568 123.383 125.244 123.331C125.021 123.295 124.796 123.257 124.565 123.235C127.286 98.5368 132.366 74.1383 139.756 50.401C125.214 45.5737 110.65 40.7525 96.1077 35.9252C97.3059 33.3402 98.5263 30.7765 99.7731 28.2204V28.228ZM79.702 32.8025C98.1633 38.9184 116.619 45.0512 135.078 51.1672C127.818 74.4643 122.796 98.3875 120.052 122.623C119.489 122.535 118.926 122.474 118.37 122.407C117.389 97.6716 118.767 72.8694 122.512 48.343C107.421 45.892 92.345 43.4335 77.2466 40.9825C78.0405 38.2406 78.8491 35.5215 79.7005 32.8025H79.699H79.702ZM74.7086 124.934C73.6845 122.2 73.019 119.144 72.8257 115.934C72.169 105.288 76.7301 95.9366 83.6153 92.5473C85.1381 91.7948 86.776 91.3484 88.4936 91.2357C88.6382 91.2205 88.7755 91.2144 88.9334 91.2144H88.9481C93.5018 91.0651 97.7604 93.3744 101.029 97.3014C98.6325 93.3835 95.3847 90.4923 91.7341 89.2036C90.2466 88.6751 88.7032 88.4054 87.1154 88.4435C86.9206 88.4359 86.7185 88.4588 86.5237 88.4649C77.0548 89.0909 70.0471 100.162 70.8543 113.163C70.9767 115.071 71.266 116.926 71.6983 118.684C71.75 118.929 71.806 119.161 71.8783 119.385C72.4199 121.426 73.1562 123.34 74.0504 125.076C72.8094 125.351 71.567 125.664 70.3334 125.977C69.814 126.104 69.3093 126.253 68.7884 126.402C67.7776 126.663 66.761 126.954 65.7428 127.281C65.5849 127.31 65.4403 127.348 65.2883 127.408C62.1276 128.361 59.0022 129.426 55.9345 130.619C54.4618 100.541 56.0068 70.3454 60.5678 40.5072C79.7153 43.6132 98.876 46.7436 118.031 49.8495C114.379 73.7423 112.978 97.9123 113.809 122.014C100.436 121.031 87.3072 122.081 74.7292 124.926L74.7071 124.935L74.7086 124.934Z" fill="url(#paint0_linear_194_1853)"/>
<path d="M8.07107 171.328L8.10305 216.263H0V171.328H8.07107Z" fill="#2B2A29"/>
<path d="M31.2682 216.998C27.8552 216.998 24.9096 216.29 22.4338 214.887C19.9568 213.483 18.053 211.495 16.7212 208.914C15.3999 206.322 14.7328 203.279 14.7328 199.775C14.7328 196.322 15.3999 193.29 16.7411 190.678C18.073 188.064 19.9463 186.036 22.3598 184.57C24.764 183.105 27.5945 182.378 30.8513 182.378C32.943 182.378 34.9302 182.706 36.8035 183.372C38.6662 184.028 40.3316 185.053 41.7669 186.437C43.2138 187.82 44.3483 189.572 45.1705 191.714C46.0032 193.845 46.4084 196.375 46.4084 199.316V201.744H18.5005V196.417H38.7191C38.7085 194.9 38.375 193.548 37.7196 192.359C37.0748 191.181 36.1693 190.238 35.0042 189.562C33.8497 188.876 32.4967 188.537 30.957 188.537C29.3233 188.537 27.8763 188.927 26.6384 189.705C25.3994 190.473 24.4316 191.497 23.7457 192.758C23.0586 194.018 22.7051 195.391 22.6946 196.897V201.537C22.6946 203.495 23.0481 205.165 23.7762 206.548C24.5044 207.942 25.5145 209.007 26.8146 209.734C28.1148 210.472 29.6345 210.841 31.3821 210.841C32.5484 210.841 33.6089 210.678 34.5556 210.349C35.4916 210.021 36.3138 209.54 37.0114 208.895C37.709 208.26 38.2293 207.471 38.5828 206.517L46.0748 207.347C45.6062 209.295 44.7124 210.995 43.3911 212.451C42.0581 213.895 40.3727 215.012 38.3233 215.811C36.2633 216.6 33.9108 217 31.2682 217V216.998Z" fill="#2B2A29"/>
<path d="M60.9585 196.658V216.263H53.0382V182.807H60.61V188.49H61.0002C61.7702 186.62 63.0116 185.138 64.7033 184.033C66.4066 182.929 68.5002 182.378 71.0129 182.378C73.3311 182.378 75.3529 182.869 77.0759 183.86C78.8001 184.841 80.1445 186.273 81.0975 188.143C82.0516 190.025 82.524 192.293 82.5032 194.961V216.263H74.5933V196.188C74.5933 193.948 74.0178 192.201 72.8599 190.934C71.7008 189.666 70.1005 189.043 68.059 189.043C66.6741 189.043 65.4421 189.339 64.3756 189.943C63.308 190.545 62.4673 191.415 61.8617 192.549C61.2561 193.673 60.9585 195.054 60.9585 196.658Z" fill="#2B2A29"/>
<path d="M103.273 216.999C100.579 216.999 98.1677 216.308 96.0299 214.944C93.9026 213.581 92.225 211.607 90.9887 209.004C89.7523 206.413 89.1335 203.251 89.1335 199.545C89.1335 195.785 89.763 192.614 91.0206 190.022C92.2782 187.44 93.976 185.478 96.1257 184.145C98.2742 182.823 100.664 182.161 103.295 182.161C105.309 182.161 106.953 182.492 108.254 183.164C109.554 183.825 110.581 184.63 111.336 185.561C112.09 186.49 112.688 187.369 113.096 188.183H113.432V171.328H121.546V216.401H113.589V211.071H113.097C112.689 211.898 112.08 212.765 111.294 213.685C110.498 214.604 109.46 215.378 108.16 216.029C106.871 216.669 105.236 217 103.275 217L103.273 216.999ZM105.527 210.461C107.235 210.461 108.703 209.996 109.908 209.087C111.113 208.167 112.025 206.887 112.655 205.245C113.272 203.602 113.587 201.682 113.587 199.503C113.587 197.313 113.283 195.412 112.665 193.802C112.047 192.19 111.134 190.931 109.94 190.032C108.734 189.144 107.266 188.689 105.527 188.689C103.724 188.689 102.225 189.154 101.019 190.084C99.8134 191.003 98.9024 192.283 98.2931 193.905C97.6755 195.537 97.3715 197.407 97.3715 199.503C97.3715 201.61 97.6862 203.489 98.3038 205.142C98.9225 206.795 99.8347 208.096 101.051 209.036C102.266 209.986 103.754 210.46 105.527 210.46V210.461Z" fill="#2B2A29"/>
<path d="M144.711 216.998C141.298 216.998 138.352 216.29 135.877 214.887C133.4 213.483 131.496 211.495 130.164 208.914C128.843 206.322 128.176 203.279 128.176 199.775C128.176 196.322 128.843 193.29 130.184 190.678C131.516 188.064 133.389 186.036 135.803 184.57C138.207 183.105 141.037 182.378 144.294 182.378C146.386 182.378 148.373 182.706 150.246 183.372C152.109 184.028 153.774 185.053 155.21 186.437C156.657 187.82 157.791 189.572 158.613 191.714C159.446 193.845 159.851 196.375 159.851 199.316V201.744H131.943V196.417H152.162C152.151 194.9 151.818 193.548 151.162 192.359C150.518 191.181 149.612 190.238 148.447 189.562C147.292 188.876 145.939 188.537 144.4 188.537C142.766 188.537 141.319 188.927 140.081 189.705C138.842 190.473 137.874 191.497 137.188 192.758C136.501 194.018 136.148 195.391 136.137 196.897V201.537C136.137 203.495 136.491 205.165 137.219 206.548C137.947 207.942 138.957 209.007 140.257 209.734C141.557 210.472 143.077 210.841 144.825 210.841C145.991 210.841 147.052 210.678 147.998 210.349C148.934 210.021 149.757 209.54 150.454 208.895C151.152 208.26 151.672 207.471 152.026 206.517L159.518 207.347C159.049 209.295 158.155 210.995 156.834 212.451C155.501 213.895 153.815 215.012 151.766 215.811C149.706 216.6 147.354 217 144.711 217V216.998Z" fill="#2B2A29"/>
<path d="M174.401 196.658V216.263H166.481V182.807H174.053V188.49H174.443C175.213 186.62 176.454 185.138 178.146 184.033C179.849 182.929 181.943 182.378 184.456 182.378C186.774 182.378 188.796 182.869 190.519 183.86C192.243 184.841 193.587 186.273 194.54 188.143C195.494 190.025 195.967 192.293 195.946 194.961V216.263H188.036V196.188C188.036 193.948 187.461 192.201 186.303 190.934C185.144 189.666 183.543 189.043 181.502 189.043C180.117 189.043 178.885 189.339 177.818 189.943C176.751 190.545 175.91 191.415 175.304 192.549C174.699 193.673 174.401 195.054 174.401 196.658Z" fill="#2B2A29"/>
<defs>
<linearGradient id="paint0_linear_194_1853" x1="22.0015" y1="70.0331" x2="173.562" y2="70.0331" gradientUnits="userSpaceOnUse">
<stop stop-color="#5BC869"/>
<stop offset="1" stop-color="#23B142"/>
</linearGradient>
</defs>
</svg>
