<svg width="130" height="41" viewBox="0 0 130 41" fill="none" xmlns="http://www.w3.org/2000/svg">
<g clip-path="url(#clip0_194_1839)">
<path fill-rule="evenodd" clip-rule="evenodd" d="M10.3913 9.07357L21.6299 6.36212L35.3174 7.20508L40.8963 11.8767L45.0647 18.0687L38.2001 34.8673L35.4973 37.3912L24.0615 36.738L9.27944 39.0967L7.50635 37.3912L10.3913 9.07357Z" fill="#FEFEFE"/>
<path d="M30.6898 38.1299C33.2149 38.5195 35.6492 39.1385 37.9705 39.9703C42.637 35.78 45.5738 29.6816 45.5738 22.8974C45.5738 10.2522 35.3736 0.000427246 22.7869 0.000427246C10.2002 0.000427246 0 10.25 0 22.8974C0 30.2632 3.45932 36.8145 8.83486 41.0003C15.4761 38.0733 22.993 36.9427 30.6898 38.1299ZM29.5216 7.86714C34.2577 11.2692 38.9955 14.6687 43.736 18.0686C39.6266 23.849 36.0915 30.0018 33.1719 36.4462C33.0009 36.4115 32.8294 36.379 32.6539 36.346C34.5635 29.3788 37.1555 22.6075 40.3915 16.1302C36.2927 14.0591 32.1899 11.9875 28.0911 9.91865C28.5613 9.23021 29.0381 8.54622 29.5216 7.86491L29.5221 7.86669L29.5216 7.86714ZM23.3573 8.25233C28.5613 10.8809 33.7636 13.5078 38.9676 16.1319C35.7662 22.5327 33.2021 29.2194 31.2947 36.1015C31.1972 36.0819 31.1042 36.069 31.0067 36.0539C30.9397 36.0432 30.8724 36.0321 30.8028 36.0258C31.62 28.8057 33.1458 21.6733 35.3651 14.7341C30.9978 13.323 26.6238 11.9136 22.2564 10.5024C22.6163 9.74676 22.9828 8.99732 23.3573 8.2501V8.25233ZM17.3294 9.58957C22.8738 11.3775 28.4164 13.1702 33.9603 14.9581C31.78 21.7686 30.2715 28.7621 29.4476 35.8468C29.2783 35.821 29.1095 35.8032 28.9424 35.7836C28.6477 28.5528 29.0616 21.3024 30.1864 14.1325C25.6542 13.4161 21.1264 12.6973 16.592 11.9808C16.8304 11.1793 17.0732 10.3844 17.3289 9.58957H17.3285H17.3294ZM15.8297 36.5223C15.5222 35.723 15.3223 34.8298 15.2642 33.8915C15.067 30.7793 16.4368 28.0456 18.5046 27.0548C18.962 26.8348 19.4539 26.7043 19.9697 26.6714C20.0132 26.6669 20.0544 26.6651 20.1018 26.6651H20.1062C21.4738 26.6215 22.7528 27.2966 23.7344 28.4446C23.0147 27.2992 22.0393 26.4541 20.9429 26.0773C20.4962 25.9228 20.0327 25.844 19.5558 25.8551C19.4973 25.8529 19.4366 25.8596 19.3781 25.8614C16.5343 26.0444 14.4298 29.2808 14.6722 33.0815C14.709 33.639 14.7958 34.1814 14.9257 34.6953C14.9412 34.767 14.958 34.8346 14.9797 34.9001C15.1424 35.4968 15.3635 36.0566 15.6321 36.5638C15.2594 36.6444 14.8862 36.7356 14.5157 36.8274C14.3598 36.8643 14.2082 36.908 14.0518 36.9516C13.7482 37.0278 13.4429 37.1128 13.1371 37.2086C13.0897 37.217 13.0462 37.2281 13.0006 37.2455C12.0513 37.5243 11.1127 37.8355 10.1914 38.1842C9.7491 29.3917 10.2131 20.5645 11.5829 11.8419C17.3334 12.7499 23.0878 13.665 28.8405 14.5729C27.7437 21.5575 27.3231 28.6231 27.5726 35.6687C23.5562 35.3815 19.6134 35.6883 15.8359 36.5201L15.8293 36.5228L15.8297 36.5223Z" fill="url(#paint0_linear_194_1839)"/>
<path d="M58.457 11.765L58.469 28.9826H55.4377V11.765H58.457Z" fill="#2B2A29"/>
<path d="M67.2678 29.2351C65.98 29.2351 64.8686 28.9625 63.9344 28.4224C62.9997 27.8818 62.2814 27.1163 61.7788 26.1224C61.2803 25.124 61.0286 23.9524 61.0286 22.6032C61.0286 21.2735 61.2803 20.1059 61.7864 19.1C62.2889 18.0936 62.9958 17.3125 63.9065 16.7483C64.8136 16.1841 65.8816 15.9041 67.1105 15.9041C67.8998 15.9041 68.6496 16.0305 69.3565 16.287C70.0593 16.5395 70.6877 16.934 71.2293 17.4671C71.7752 17.9996 72.2033 18.6743 72.5135 19.499C72.8277 20.3197 72.9806 21.294 72.9806 22.4264V23.3615H62.4502V21.31H70.0792C70.0753 20.7258 69.9494 20.2052 69.7021 19.7475C69.4588 19.2937 69.1171 18.9308 68.6775 18.6703C68.2419 18.4062 67.7314 18.2757 67.1504 18.2757C66.534 18.2757 65.988 18.4258 65.5209 18.7255C65.0534 19.0212 64.6882 19.4157 64.4294 19.9011C64.1701 20.3865 64.0367 20.915 64.0328 21.4948V23.2818C64.0328 24.0357 64.1661 24.6787 64.4409 25.2113C64.7157 25.7479 65.0968 26.158 65.5874 26.4381C66.0779 26.7222 66.6514 26.8643 67.3108 26.8643C67.7509 26.8643 68.1511 26.8015 68.5082 26.675C68.8614 26.5486 69.1717 26.3633 69.4349 26.1148C69.6981 25.8704 69.8944 25.5667 70.0278 25.1993L72.8548 25.519C72.6779 26.2689 72.3407 26.9235 71.8421 27.4841C71.3392 28.0403 70.7032 28.4705 69.9299 28.7782C69.1526 29.0819 68.2649 29.236 67.2678 29.236V29.2351Z" fill="#2B2A29"/>
<path d="M78.572 21.4155V28.9825H75.5408V16.0692H78.4386V18.2628H78.5879C78.8827 17.5409 79.3577 16.9687 80.0052 16.5426C80.6571 16.1164 81.4583 15.9036 82.42 15.9036C83.3072 15.9036 84.0809 16.0933 84.7404 16.4758C85.4002 16.8543 85.9147 17.4069 86.2795 18.1287C86.6446 18.855 86.8254 19.7305 86.8175 20.7605V28.9825H83.7902V21.2338C83.7902 20.3695 83.57 19.6949 83.1268 19.2059C82.6832 18.7165 82.0708 18.4761 81.2895 18.4761C80.7594 18.4761 80.2879 18.5905 79.8798 18.8234C79.4712 19.0559 79.1494 19.3916 78.9177 19.8293C78.6859 20.2631 78.572 20.7961 78.572 21.4155Z" fill="#2B2A29"/>
<path d="M94.6744 29.2114C93.6653 29.2114 92.7622 28.9474 91.9614 28.4264C91.1646 27.9058 90.5362 27.1519 90.0731 26.1576C89.6099 25.1676 89.3782 23.96 89.3782 22.5439C89.3782 21.1078 89.6139 19.8966 90.085 18.9063C90.5561 17.9199 91.192 17.1705 91.9973 16.6615C92.802 16.1565 93.6972 15.9036 94.6828 15.9036C95.4371 15.9036 96.0531 16.03 96.5401 16.2865C97.0271 16.539 97.4118 16.8467 97.6945 17.2021C97.9773 17.557 98.2011 17.8927 98.354 18.204H98.4798V11.7654H101.519V28.983H98.5388V26.9471H98.3544C98.2015 27.2628 97.9733 27.5941 97.679 27.9454C97.3808 28.2968 96.9921 28.5925 96.5051 28.8409C96.022 29.0854 95.4096 29.2119 94.6753 29.2119L94.6744 29.2114ZM95.5186 26.7142C96.1585 26.7142 96.7085 26.5365 97.1596 26.1892C97.6112 25.8378 97.9529 25.3489 98.1887 24.7215C98.42 24.094 98.5379 23.3606 98.5379 22.5279C98.5379 21.6916 98.424 20.9653 98.1927 20.3504C97.9609 19.7345 97.6192 19.2536 97.1716 18.9103C96.72 18.5709 96.1701 18.3973 95.5186 18.3973C94.8432 18.3973 94.2818 18.5749 93.8302 18.9299C93.3786 19.2812 93.0374 19.7701 92.8091 20.3896C92.5778 21.013 92.4639 21.7272 92.4639 22.5279C92.4639 23.333 92.5818 24.0508 92.8131 24.6823C93.0449 25.3137 93.3866 25.8107 93.8421 26.1696C94.2973 26.5325 94.8548 26.7137 95.5186 26.7137V26.7142Z" fill="#2B2A29"/>
<path d="M110.442 29.2351C109.155 29.2351 108.043 28.9625 107.109 28.4224C106.174 27.8818 105.456 27.1163 104.953 26.1224C104.455 25.124 104.203 23.9524 104.203 22.6032C104.203 21.2735 104.455 20.1059 104.961 19.1C105.463 18.0936 106.17 17.3125 107.081 16.7483C107.988 16.1841 109.056 15.9041 110.285 15.9041C111.074 15.9041 111.824 16.0305 112.531 16.287C113.234 16.5395 113.862 16.934 114.404 17.4671C114.95 17.9996 115.378 18.6743 115.688 19.499C116.002 20.3197 116.155 21.294 116.155 22.4264V23.3615H105.625V21.31H113.254C113.25 20.7258 113.124 20.2052 112.877 19.7475C112.633 19.2937 112.292 18.9308 111.852 18.6703C111.416 18.4062 110.906 18.2757 110.325 18.2757C109.709 18.2757 109.163 18.4258 108.695 18.7255C108.228 19.0212 107.863 19.4157 107.604 19.9011C107.345 20.3865 107.211 20.915 107.207 21.4948V23.2818C107.207 24.0357 107.341 24.6787 107.615 25.2113C107.89 25.7479 108.271 26.158 108.762 26.4381C109.252 26.7222 109.826 26.8643 110.485 26.8643C110.925 26.8643 111.326 26.8015 111.683 26.675C112.036 26.5486 112.346 26.3633 112.609 26.1148C112.873 25.8704 113.069 25.5667 113.202 25.1993L116.029 25.519C115.852 26.2689 115.515 26.9235 115.017 27.4841C114.514 28.0403 113.878 28.4705 113.104 28.7782C112.327 29.0819 111.439 29.236 110.442 29.236V29.2351Z" fill="#2B2A29"/>
<path d="M121.747 21.4155V28.9825H118.715V16.0692H121.613V18.2628H121.763C122.057 17.5409 122.532 16.9687 123.18 16.5426C123.832 16.1164 124.633 15.9036 125.595 15.9036C126.482 15.9036 127.255 16.0933 127.915 16.4758C128.575 16.8543 129.089 17.4069 129.454 18.1287C129.819 18.855 130 19.7305 129.992 20.7605V28.9825H126.965V21.2338C126.965 20.3695 126.745 19.6949 126.301 19.2059C125.858 18.7165 125.245 18.4761 124.464 18.4761C123.934 18.4761 123.462 18.5905 123.054 18.8234C122.646 19.0559 122.324 19.3916 122.092 19.8293C121.86 20.2631 121.747 20.7961 121.747 21.4155Z" fill="#2B2A29"/>
</g>
<defs>
<linearGradient id="paint0_linear_194_1839" x1="0.000443161" y1="20.4732" x2="45.518" y2="20.4732" gradientUnits="userSpaceOnUse">
<stop stop-color="#5BC869"/>
<stop offset="1" stop-color="#23B142"/>
</linearGradient>
<clipPath id="clip0_194_1839">
<rect width="130" height="41" fill="white"/>
</clipPath>
</defs>
</svg>
