<svg width="80" height="28" viewBox="0 0 80 28" fill="none" xmlns="http://www.w3.org/2000/svg">
<path d="M21.0628 26.0397C22.7958 26.3058 24.4665 26.7285 26.0596 27.2966C29.2623 24.4349 31.2779 20.2701 31.2779 15.637C31.2779 7.00122 24.2773 0 15.6389 0C7.00055 0 0 6.9997 0 15.637C0 20.6673 2.37417 25.1414 6.06347 28C10.6214 26.0011 15.7804 25.229 21.0628 26.0397ZM20.2611 5.3724C23.5115 7.6958 26.7631 10.0174 30.0166 12.3393C27.1962 16.2869 24.77 20.4888 22.7663 24.8899C22.6489 24.8661 22.5312 24.844 22.4108 24.8214C23.7213 20.0633 25.5003 15.439 27.7212 11.0155C24.9081 9.60105 22.0923 8.18633 19.2793 6.77344C19.602 6.30329 19.9292 5.83617 20.2611 5.37088L20.2614 5.3721L20.2611 5.3724ZM16.0304 5.63546C19.602 7.43062 23.1723 9.22456 26.7439 11.0167C24.5468 15.388 22.787 19.9545 21.4779 24.6545C21.411 24.6411 21.3472 24.6323 21.2803 24.622C21.2343 24.6147 21.1881 24.607 21.1403 24.6028C21.7012 19.672 22.7484 14.801 24.2715 10.0621C21.2742 9.09836 18.2722 8.13585 15.2749 7.17213C15.5218 6.65605 15.7734 6.14424 16.0304 5.63394V5.63546ZM11.8934 6.5487C15.6985 7.7697 19.5025 8.99405 23.3074 10.215C21.811 14.8661 20.7757 19.6422 20.2103 24.4805C20.0941 24.4629 19.9782 24.4507 19.8635 24.4374C19.6613 19.4992 19.9454 14.5477 20.7173 9.65123C17.6068 9.16192 14.4993 8.67108 11.3873 8.18177C11.5509 7.63437 11.7176 7.09154 11.8931 6.5487H11.8928H11.8934ZM10.8641 24.9419C10.6531 24.396 10.5159 23.786 10.476 23.1452C10.3407 21.0198 11.2808 19.1528 12.7 18.4762C13.0138 18.326 13.3514 18.2369 13.7055 18.2144C13.7353 18.2113 13.7636 18.2101 13.7961 18.2101H13.7991C14.7377 18.1803 15.6155 18.6413 16.2892 19.4253C15.7953 18.6432 15.1258 18.0659 14.3734 17.8087C14.0668 17.7031 13.7487 17.6493 13.4214 17.6569C13.3813 17.6554 13.3396 17.66 13.2994 17.6612C11.3477 17.7862 9.90333 19.9964 10.0697 22.592C10.0949 22.9728 10.1546 23.3432 10.2437 23.6941C10.2543 23.7431 10.2659 23.7893 10.2808 23.834C10.3924 24.2415 10.5442 24.6238 10.7285 24.9702C10.4727 25.0252 10.2166 25.0875 9.96233 25.1502C9.85527 25.1754 9.75126 25.2052 9.64389 25.235C9.43555 25.287 9.226 25.3451 9.01613 25.4105C8.98359 25.4163 8.95378 25.4239 8.92246 25.4357C8.27097 25.6261 7.62679 25.8387 6.99447 26.0768C6.69093 20.0722 7.00937 14.0438 7.94949 8.08689C11.8961 8.70697 15.8454 9.33191 19.7936 9.95199C19.0408 14.722 18.7522 19.5473 18.9234 24.3589C16.1669 24.1627 13.4609 24.3723 10.8684 24.9404L10.8638 24.9422L10.8641 24.9419Z" fill="#008060"/>
<path d="M40.9138 20.7406C39.6001 20.7406 38.5097 20.1283 37.9774 19.0933H37.8314V20.5854H35.7793V7.50212H37.9087V12.6509H38.0546C38.544 11.6246 39.6259 10.995 40.9138 10.995C43.2922 10.995 44.769 12.8493 44.769 15.8678C44.769 18.8691 43.2836 20.7406 40.9138 20.7406ZM40.2441 12.8148C38.793 12.8148 37.8743 13.9877 37.8743 15.8678C37.8743 17.7479 38.7845 18.9209 40.2441 18.9209C41.7037 18.9209 42.5795 17.7652 42.5795 15.8678C42.5795 13.9704 41.6952 12.8148 40.2441 12.8148Z" fill="#202223"/>
<path d="M46.4756 20.5854V7.50212H48.5706V12.6768H48.7252C49.1717 11.616 50.1763 10.9778 51.5758 10.9778C53.585 10.9778 54.8042 12.2542 54.8042 14.4965V20.5854H52.6748V15.0054C52.6748 13.5737 52.0223 12.8406 50.7859 12.8406C49.3863 12.8406 48.605 13.7548 48.605 15.1089V20.5854H46.4756Z" fill="#202223"/>
<path d="M60.864 20.7751C58.0477 20.7751 56.3477 18.9295 56.3477 15.8678C56.3477 12.8234 58.0735 10.9605 60.864 10.9605C63.6631 10.9605 65.3803 12.8148 65.3803 15.8678C65.3803 18.9295 63.6717 20.7751 60.864 20.7751ZM60.864 18.9812C62.3494 18.9812 63.1908 17.8428 63.1908 15.8678C63.1908 13.9014 62.3408 12.7544 60.864 12.7544C59.3786 12.7544 58.5286 13.9014 58.5286 15.8678C58.5286 17.8428 59.3786 18.9812 60.864 18.9812Z" fill="#202223"/>
<path d="M67.0955 20.5854V7.50212H69.2249V20.5854H67.0955Z" fill="#202223"/>
<path d="M75.3448 12.6595C74.074 12.6595 73.1811 13.5737 73.0866 14.9536H77.5085C77.4656 13.5565 76.6241 12.6595 75.3448 12.6595ZM77.5257 17.9894H79.5434C79.1399 19.7057 77.5858 20.7751 75.3705 20.7751C72.6058 20.7751 70.9401 18.9381 70.9401 15.9023C70.9401 12.8665 72.6316 10.9605 75.3534 10.9605C78.0323 10.9605 79.6379 12.7458 79.6379 15.7212V16.4112H73.078V16.5233C73.1296 18.0929 74.0311 19.0761 75.4307 19.0761C76.4867 19.0761 77.2166 18.688 77.5257 17.9894Z" fill="#202223"/>
</svg>
