<svg width="20" height="21" viewBox="0 0 20 21" fill="none" xmlns="http://www.w3.org/2000/svg">
<path d="M19.6673 18.8942L16.1582 15.3094C17.5459 13.725 18.3065 11.7192 18.3055 9.64709C18.3055 4.79052 14.1995 0.839233 9.15275 0.839233C4.106 0.839233 0 4.79052 0 9.64709C0 14.5037 4.106 18.455 9.15275 18.455C11.0474 18.455 12.8529 17.905 14.3965 16.8611L17.9466 20.4869C18.1738 20.714 18.4794 20.8392 18.807 20.8392C19.117 20.8392 19.411 20.7255 19.6343 20.5187C19.8621 20.3073 19.9936 20.0176 19.9998 19.713C20.006 19.4085 19.8864 19.114 19.6673 18.8942ZM9.15275 3.13694C12.8831 3.13694 15.9178 6.05732 15.9178 9.64709C15.9178 13.2369 12.8831 16.1573 9.15275 16.1573C5.42241 16.1573 2.38767 13.2369 2.38767 9.64709C2.38767 6.05732 5.42241 3.13694 9.15275 3.13694Z" fill="#D3D3D3"/>
</svg>
